<svg width="55" height="55" viewBox="0 0 55 55" fill="none" xmlns="http://www.w3.org/2000/svg">
<g clip-path="url(#clip0)">
<path d="M18.0469 -0.000488281C16.7007 -0.000488281 15.3688 0.446602 14.1956 1.29233C13.8346 1.55251 13.753 2.056 14.0132 2.41704C14.2735 2.77809 14.7771 2.85962 15.1379 2.59944C16.0479 1.94342 17.0266 1.61084 18.0469 1.61084C21.6304 1.61084 24.5459 5.76699 24.5459 10.8758C24.5459 15.9845 21.6304 20.1407 18.0469 20.1407C14.4634 20.1407 11.5479 15.9845 11.5479 10.8758C11.5479 8.69896 12.0936 6.58114 13.0844 4.91245C13.3115 4.52981 13.1855 4.03557 12.803 3.80837C12.4204 3.58117 11.9262 3.70718 11.6989 4.08981C10.5624 6.00375 9.93652 8.41376 9.93652 10.8758C9.93652 13.7343 10.7509 16.4312 12.2296 18.4697C12.9613 19.4785 13.8139 20.2708 14.7456 20.8243L13.8081 50.6253C13.7717 51.7828 14.1955 52.8783 15.0014 53.7098C15.8072 54.5414 16.8889 54.9995 18.0469 54.9995C19.2049 54.9995 20.2865 54.5415 21.0924 53.7099C21.8983 52.8784 22.3221 51.7829 22.2856 50.6254L22.1546 46.4628C22.1406 46.018 21.7724 45.6685 21.324 45.6829C20.8793 45.6969 20.53 46.0688 20.5441 46.5135L20.6752 50.6761C20.6977 51.3938 20.435 52.073 19.9352 52.5886C19.4355 53.1042 18.765 53.3882 18.0469 53.3882C17.3288 53.3882 16.6582 53.1042 16.1585 52.5885C15.6589 52.0729 15.396 51.3936 15.4186 50.676L16.336 21.513C16.8913 21.6705 17.4638 21.7519 18.0469 21.7519C18.63 21.7519 19.2024 21.6705 19.7578 21.513L20.436 43.0762C20.4498 43.5124 20.8075 43.8565 21.2408 43.8565C21.2493 43.8565 21.2579 43.8564 21.2665 43.8561C21.7114 43.8421 22.0606 43.4702 22.0465 43.0255L21.3482 20.8243C22.2798 20.2708 23.1324 19.4785 23.8642 18.4697C25.3429 16.4312 26.1572 13.7343 26.1572 10.8758C26.1572 8.01727 25.3429 5.32033 23.8642 3.28179C22.3289 1.16515 20.263 -0.000488281 18.0469 -0.000488281V-0.000488281Z" fill="black"/>
<path d="M44.2578 11.1066C44.7029 11.1066 45.0635 10.7459 45.0635 10.3009V2.4165C45.0635 1.08372 43.9792 -0.000488281 42.6465 -0.000488281C41.3138 -0.000488281 40.2295 1.08372 40.2295 2.4165V8.60938C40.2295 8.7574 40.1091 8.87793 39.9609 8.87793C39.8128 8.87793 39.6924 8.7574 39.6924 8.60938V2.4165C39.6924 1.08372 38.6081 -0.000488281 37.2754 -0.000488281C35.9427 -0.000488281 34.8584 1.08372 34.8584 2.4165V8.60938C34.8584 8.7574 34.738 8.87793 34.5898 8.87793C34.4417 8.87793 34.3213 8.7574 34.3213 8.60938V2.4165C34.3213 1.08372 33.237 -0.000488281 31.9043 -0.000488281C30.5716 -0.000488281 29.4873 1.08372 29.4873 2.4165V15.5117C29.4873 18.3066 31.3836 20.6655 33.9568 21.3732L33.0366 50.6253C33.0002 51.7828 33.424 52.8783 34.2299 53.7098C35.0358 54.5414 36.1174 54.9995 37.2754 54.9995C38.4334 54.9995 39.515 54.5415 40.3209 53.7099C41.1268 52.8784 41.5506 51.7829 41.5142 50.6254L40.594 21.3733C43.1672 20.6657 45.0635 18.3067 45.0635 15.5118V14.0636C45.0635 13.6187 44.7029 13.2579 44.2578 13.2579C43.8128 13.2579 43.4521 13.6187 43.4521 14.0636V15.5118C43.4521 17.9756 41.4477 19.9801 38.9838 19.9801H35.5668C33.103 19.9801 31.0985 17.9756 31.0985 15.5118V2.4165C31.0985 1.97221 31.4599 1.61084 31.9042 1.61084C32.3485 1.61084 32.7099 1.97221 32.7099 2.4165V8.60938C32.7099 9.64589 33.5532 10.4893 34.5897 10.4893C35.6262 10.4893 36.4696 9.64589 36.4696 8.60938V2.4165C36.4696 1.97221 36.831 1.61084 37.2753 1.61084C37.7196 1.61084 38.0809 1.97221 38.0809 2.4165V8.60938C38.0809 9.64589 38.9243 10.4893 39.9608 10.4893C40.9973 10.4893 41.8407 9.64589 41.8407 8.60938V2.4165C41.8407 1.97221 42.2021 1.61084 42.6464 1.61084C43.0907 1.61084 43.452 1.97221 43.452 2.4165V10.3009C43.4521 10.746 43.8128 11.1066 44.2578 11.1066V11.1066ZM39.9037 50.676C39.9262 51.3937 39.6635 52.0729 39.1638 52.5885C38.664 53.1042 37.9935 53.3882 37.2754 53.3882C36.5573 53.3882 35.8867 53.1042 35.387 52.5885C34.8874 52.0729 34.6245 51.3936 34.6471 50.676L35.562 21.5912C35.5636 21.5912 35.5652 21.5913 35.567 21.5913H38.9839C38.9855 21.5913 38.9873 21.5912 38.9889 21.5912L39.9037 50.676Z" fill="black"/>
</g>
<defs>
<clipPath id="clip0">
<rect width="55" height="55" fill="white" transform="translate(0 -0.000488281)"/>
</clipPath>
</defs>
</svg>
