<svg width="35" height="70" viewBox="0 0 35 70" fill="none" xmlns="http://www.w3.org/2000/svg">
<path d="M13.7183 69.8689L13.7185 69.8684L1.40889 66.5589C1.27371 66.5226 1.15481 66.4416 1.07154 66.329C0.988284 66.2165 0.945572 66.0791 0.950363 65.9393L0.950376 65.9389H0.950377L3.57635 2.71048L3.57635 2.7104C3.58026 2.61999 3.60391 2.53154 3.64566 2.45125C3.68741 2.37097 3.74624 2.3008 3.81801 2.24568L3.81823 2.24551C3.88978 2.1912 3.97227 2.1531 4.06001 2.13384C4.14769 2.1146 4.2385 2.11463 4.32616 2.13394C4.32622 2.13395 4.32627 2.13397 4.32632 2.13398L10.6374 3.48391L10.6375 3.48392L10.627 3.53282C10.7491 3.55881 10.8592 3.62417 10.9405 3.71885C11.0218 3.81353 11.0698 3.93229 11.077 4.05687L13.7183 69.8689ZM13.7183 69.8689L13.7255 69.8698C13.7779 69.8761 13.8309 69.8761 13.8833 69.87L13.7183 69.8689ZM4.78457 3.48612L9.91258 4.60455L13.2166 68.4325L2.20829 65.4815L4.78457 3.48612Z" fill="#1D1D1B" stroke="black" stroke-width="0.1"/>
<path d="M13.5021 69.7462L13.5017 69.7459C13.4307 69.6914 13.3723 69.6222 13.3306 69.5431C13.2889 69.4639 13.2648 69.3767 13.26 69.2874L13.26 69.2873L9.89353 4.13363C9.89353 4.13361 9.89353 4.13359 9.89353 4.13357L9.89352 4.13351L9.94346 4.13093C9.93549 3.9835 9.98509 3.83873 10.0818 3.72715C10.1785 3.61557 10.3147 3.5459 10.4618 3.53283L13.5021 69.7462ZM13.5021 69.7462C13.6105 69.8275 13.7425 69.871 13.8779 69.8701L13.5021 69.7462ZM14.4562 68.4882L11.1579 4.66665L26.3672 3.41006L33.38 64.2672L14.4562 68.4882Z" fill="#1D1D1B" stroke="black" stroke-width="0.1"/>
<path d="M6.62384 41.5543H6.62383L7.81308 41.5609L7.86307 41.5617L7.86307 41.5615C7.86308 41.5615 7.86308 41.5614 7.86308 41.5614L8.05105 30.3002L8.05106 30.3002V30.2994C8.05106 30.135 7.98577 29.9774 7.86957 29.8612C7.75337 29.745 7.59577 29.6797 7.43143 29.6797C7.2671 29.6797 7.10949 29.745 6.99329 29.8612C6.87719 29.9773 6.81192 30.1348 6.81181 30.2989C6.81181 30.2991 6.81181 30.2992 6.81181 30.2994L6.62384 41.5543Z" fill="#1D1D1B" stroke="black" stroke-width="0.1"/>
<path d="M6.81608 68.2296C6.97317 68.23 7.12455 68.1707 7.23958 68.0637C7.35461 67.9567 7.42471 67.81 7.43571 67.6533L7.43578 67.6534L7.43583 67.6507L7.80039 45.515L7.8004 45.515V45.5142C7.8004 45.3499 7.73511 45.1923 7.61891 45.0761C7.50271 44.9599 7.34511 44.8946 7.18077 44.8946C7.01644 44.8946 6.85883 44.9599 6.74263 45.0761C6.62653 45.1922 6.56126 45.3496 6.56115 45.5138C6.56115 45.5139 6.56115 45.5141 6.56115 45.5142L6.19659 67.6091H6.19658V67.61C6.19658 67.7743 6.26187 67.9319 6.37807 68.0481C6.49424 68.1643 6.65179 68.2296 6.81608 68.2296ZM6.81608 68.2296L6.81621 68.1796V68.2296C6.81617 68.2296 6.81613 68.2296 6.81608 68.2296Z" fill="#1D1D1B" stroke="black" stroke-width="0.1"/>
<path d="M10.3769 4.72084L10.3768 4.72099L10.3807 4.72153C10.421 4.72716 10.4619 4.72766 10.5023 4.72305L10.5427 4.73654L10.5524 4.73978L10.5626 4.73894L26.9649 3.38917C27.1281 3.39488 27.287 3.33595 27.4071 3.2251C27.528 3.11356 27.5995 2.95857 27.6061 2.79425C27.6127 2.62993 27.5537 2.46972 27.4422 2.34888C27.3313 2.22881 27.1776 2.15738 27.0145 2.15002L19.806 0.954302L19.806 0.954254L19.8039 0.953989C19.7549 0.948067 19.7053 0.94802 19.6563 0.953847L4.17275 2.09276C4.00966 2.08309 3.84927 2.13811 3.72642 2.24596C3.60269 2.35459 3.52717 2.50793 3.51649 2.67224C3.50581 2.83654 3.56084 2.99836 3.66947 3.1221C3.77724 3.24485 3.92902 3.32015 4.09185 3.33176L10.3769 4.72084ZM10.5504 3.47663L8.50911 3.03816L19.6762 2.19318L21.8653 2.54287L10.5504 3.47663Z" fill="#1D1D1B" stroke="black" stroke-width="0.1"/>
</svg>
