<svg width="57" height="57" viewBox="0 0 57 57" fill="none" xmlns="http://www.w3.org/2000/svg">
<g clip-path="url(#clip0)">
<path d="M46.9805 49.8876C49.2813 35.6963 49.2813 21.303 46.9805 7.11137C46.8171 6.0001 46.1371 5.11326 45.2718 4.53524C45.7461 4.0238 46.0367 3.33991 46.0367 2.58912V1.7251C46.0367 0.773576 45.2626 -0.000488281 44.3109 -0.000488281H40.4139C39.9526 -0.000488281 39.5788 0.37324 39.5788 0.834473C39.5788 1.29571 39.9526 1.66943 40.4139 1.66943H44.3109C44.3416 1.66943 44.3666 1.69448 44.3666 1.7251V2.58912C44.3666 3.2484 43.8302 3.78467 43.1708 3.78467H13.8294C13.17 3.78467 12.6336 3.2484 12.6336 2.58912V1.7251C12.6336 1.69448 12.6585 1.66943 12.6893 1.66943H36.5424C37.0037 1.66943 37.3775 1.29571 37.3775 0.834473C37.3775 0.37324 37.0037 -0.000488281 36.5426 -0.000488281H12.6894C11.7378 -0.000488281 10.9636 0.773576 10.9636 1.7251V2.58912C10.9636 3.33446 11.2499 4.01412 11.718 4.52433C10.8953 5.11715 10.2623 6.01902 10.0303 7.05593C10.0266 7.07208 10.0235 7.08822 10.021 7.1047C9.7501 8.77462 9.50785 10.47 9.30089 12.1439C9.24433 12.6014 9.56941 13.0183 10.0272 13.0749C10.4859 13.1319 10.9019 12.8064 10.9585 12.3487C11.1617 10.7046 11.3995 9.03913 11.6653 7.39849C11.8893 6.44608 12.83 5.45459 13.9011 5.45459C13.9161 5.45459 13.9312 5.45481 13.9462 5.45515C13.9534 5.45537 13.9606 5.45548 13.9679 5.45548H43.0098C44.0086 5.51348 45.1735 6.28721 45.3286 7.35786C45.3292 7.36253 45.3299 7.36721 45.3307 7.37188C47.6045 21.3914 47.6045 35.6081 45.3307 49.6273C45.3299 49.6319 45.3292 49.6366 45.3286 49.6413C45.1735 50.7119 44.0087 51.4855 43.0098 51.5437H13.968C13.9608 51.5437 13.9535 51.5438 13.9463 51.544C12.8595 51.5712 11.8925 50.5663 11.6652 49.6008C9.85653 38.4341 9.48792 27.0879 10.5699 15.8771C10.6142 15.4181 10.278 15.0101 9.8189 14.9658C9.35945 14.9202 8.95176 15.2576 8.90745 15.7166C7.81098 27.079 8.18549 38.578 10.0208 49.8944C10.0235 49.9107 10.0266 49.9271 10.0302 49.9432C10.2623 50.9802 10.8953 51.882 11.7182 52.4746C11.2499 52.9848 10.9635 53.6645 10.9635 54.41V55.274C10.9635 56.2256 11.7376 56.9996 12.6893 56.9996H28.7427C29.2039 56.9996 29.5778 56.6259 29.5778 56.1647C29.5778 55.7034 29.2039 55.3297 28.7427 55.3297H12.6894C12.6587 55.3297 12.6337 55.3047 12.6337 55.274V54.41C12.6337 53.7507 13.1701 53.2145 13.8295 53.2145H43.1708C43.8302 53.2145 44.3666 53.7507 44.3666 54.41V55.274C44.3666 55.3047 44.3416 55.3297 44.3109 55.3297H32.6369C32.1757 55.3297 31.8019 55.7034 31.8019 56.1647C31.8019 56.6259 32.1757 56.9996 32.6369 56.9996H44.3108C45.2624 56.9996 46.0366 56.2256 46.0366 55.274V54.41C46.0366 53.6592 45.7459 52.9753 45.2717 52.4639C46.137 51.8858 46.8171 50.9989 46.9805 49.8876V49.8876Z" fill="black"/>
</g>
<defs>
<clipPath id="clip0">
<rect width="57" height="57" fill="white" transform="translate(0 -0.000488281)"/>
</clipPath>
</defs>
</svg>
